<svg xmlns="http://www.w3.org/2000/svg" viewBox="0 0 500 500">
    <style>
    @media (prefers-color-scheme: dark) {
        #star { fill: rgb(255,255,255) }
        #text { fill: rgb(53,54,58) }
    }
    </style>
    <g id="icon">
        <path id="star" d="M499.182 225.859C499.182 218.494 494.272 211.948 486.907 210.311L441.08 198.854L475.45 166.121C480.36 161.211 481.997 153.028 477.905 146.481L453.355 104.746C450.082 98.1997 441.899 95.7447 435.352 97.3813L389.525 110.475L402.619 64.6481C404.255 57.2831 401.8 49.9182 395.254 46.6448L353.519 22.0949C346.972 18.8216 338.789 19.6399 333.879 24.5499L301.146 58.9198L289.689 13.0933C288.052 5.72831 281.506 0.818329 274.141 0.818329H225.041C217.676 0.818329 211.129 5.72831 209.493 13.0933L198.036 58.9198L165.303 24.5499C160.393 19.6399 152.209 18.0033 145.663 22.0949L103.928 46.6448C97.3813 49.9182 94.9264 58.1015 96.563 64.6481L109.656 110.475L63.8298 97.3813C56.4648 95.7447 49.0998 98.1997 45.8265 104.746L21.2766 146.481C18.0033 153.028 18.8216 161.211 23.7316 166.121L58.1015 198.854L12.275 210.311C4.90998 211.948 0 218.494 0 225.859V274.141C0 281.506 4.90998 288.052 12.275 289.689L58.1015 301.146L23.7316 333.879C18.8216 338.789 17.1849 346.972 21.2766 353.519L45.8265 395.254C49.0998 401.8 57.2831 404.255 63.8298 402.619L109.656 389.525L96.563 435.352C94.9264 442.717 97.3813 450.082 103.928 453.355L145.663 477.905C152.209 481.178 160.393 480.36 165.303 475.45L198.036 441.08L209.493 486.907C211.129 494.272 217.676 499.182 225.041 499.182H274.141C281.506 499.182 288.052 494.272 289.689 486.907L301.146 441.08L333.879 475.45C338.789 480.36 346.972 481.997 353.519 477.905L395.254 453.355C401.8 450.082 404.255 441.899 402.619 435.352L389.525 389.525L435.352 402.619C442.717 404.255 450.082 401.8 453.355 395.254L477.905 353.519C481.178 346.972 480.36 338.789 475.45 333.879L441.08 301.146L486.907 289.689C494.272 288.052 499.182 281.506 499.182 274.141V225.859Z" fill="rgb(61,62,67)"/>
        <path id="text" d="M166.889 189.236H151.593C149.553 189.236 147.514 191.275 147.514 193.315V244.303C147.514 255.521 147.514 265.718 148.533 275.916C147.096 273.401 145.659 270.759 144.177 268.035L144.177 268.035C141.453 263.029 138.579 257.745 135.276 252.461L95.5055 190.256C94.4857 189.236 93.466 188.216 92.4462 188.216H75.1102C73.0706 188.216 71.0311 190.256 71.0311 192.295V315.687C71.0311 317.726 73.0706 319.766 75.1102 319.766H90.4066C92.4462 319.766 94.4857 317.726 94.4857 315.687V262.659V230.026C98.5648 238.185 103.664 246.343 109.782 255.521L148.533 317.726C149.553 318.746 150.573 319.766 151.593 319.766H167.909C169.948 319.766 171.988 317.726 171.988 315.687V193.315C170.968 191.275 168.929 189.236 166.889 189.236ZM263.767 298.351H214.818V262.659H258.668C260.708 262.659 262.747 260.619 262.747 258.58V245.323C262.747 243.283 260.708 241.244 258.668 241.244H214.818V210.651H260.708C262.747 210.651 264.787 208.611 264.787 206.572V193.315C264.787 191.275 262.747 189.236 260.708 189.236H194.423C192.383 189.236 190.344 191.275 190.344 193.315V316.707C190.344 318.746 192.383 320.786 194.423 320.786H263.767C265.806 320.786 267.846 318.746 267.846 316.707V303.45C267.846 300.39 265.806 298.351 263.767 298.351ZM424.89 188.216C425.91 188.216 426.929 189.236 427.949 190.256C428.969 191.275 428.969 193.315 428.969 194.335L394.297 317.726C393.277 319.766 392.257 320.786 390.218 320.786H373.902C371.862 320.786 369.823 319.766 369.823 317.726L354.526 253.481C353.919 248.628 352.952 244.497 352.053 240.658C351.441 238.043 350.86 235.565 350.447 233.086C349.616 238.904 348.107 244.045 346.473 249.613C346.102 250.876 345.725 252.161 345.348 253.481L328.012 317.726C326.992 319.766 325.973 320.786 323.933 320.786H307.617C305.577 320.786 303.538 319.766 303.538 317.726L271.925 194.335C271.925 193.315 271.925 192.295 272.945 191.275C273.965 190.256 274.984 189.236 276.004 189.236H292.32C294.36 189.236 296.399 190.256 296.399 192.295L310.676 254.501C311.606 258.221 312.324 261.941 313.023 265.564C313.858 269.887 314.665 274.072 315.775 277.955C317.814 270.817 319.854 262.659 321.893 254.501L321.893 254.501L338.21 192.295C339.23 190.256 340.249 189.236 342.289 189.236H358.605C360.645 189.236 362.684 190.256 362.684 192.295L377.981 254.501C378.397 256.166 378.813 257.789 379.221 259.379C380.81 265.574 382.268 271.255 383.079 276.936C384.099 269.797 386.139 262.659 388.178 255.521V253.481L404.495 191.275C405.514 189.236 406.534 188.216 408.574 188.216H424.89Z" fill="rgb(232,234,237)"/>
    </g>
</svg>